<svg width="28" height="28" viewBox="0 0 28 28" fill="none" xmlns="http://www.w3.org/2000/svg">
<g clip-path="url(#clip0_2380_88)">
<rect width="28" height="28" rx="14" fill="white"/>
<path d="M28 14C28 21.732 21.732 28 14 28C6.26795 28 0 21.732 0 14C0 6.26795 6.26795 0 14 0C21.732 0 28 6.26795 28 14ZM14.4564 14.9695H15.5231C15.5172 14.8664 15.4511 14.772 15.4145 14.672C14.8172 13.0411 15.2001 10.9152 16.2979 9.57938C16.3588 9.50502 16.4564 9.44127 16.4863 9.34291H11.9075C11.7761 9.34291 11.5318 9.42868 11.4094 9.48692C10.299 10.19 9.04112 10.7649 7.94609 11.4802C7.76431 11.5991 7.60024 11.7442 7.55499 11.9673C7.53335 11.9717 7.51839 11.965 7.49911 11.9575C7.42475 11.9276 7.20913 11.7549 7.13948 11.6939C6.12512 10.8094 5.78713 9.32363 6.14204 8.04289C6.3014 8.01889 6.45957 7.98033 6.6205 7.96459C7.23825 7.90399 7.79422 8.05548 8.3978 8.13181C10.2105 8.36081 12.0523 8.23726 13.8001 7.70529L13.9933 7.62502C12.231 8.10073 10.4151 8.19634 8.6087 7.92091C8.12552 7.84733 7.65335 7.72064 7.16781 7.6628C6.86681 7.63998 6.57132 7.6565 6.2711 7.68129C6.47688 7.02971 7.01121 6.52725 7.67539 6.35727C8.45131 6.15857 9.00216 6.38914 9.74189 6.52371C11.7053 6.88019 13.7136 6.66103 15.5361 5.85324L15.6742 5.77454C15.6412 5.76864 15.6156 5.77887 15.5853 5.7891C15.2902 5.88865 15.0065 6.02597 14.7071 6.11922C13.1828 6.59453 11.5129 6.64962 9.94964 6.33484C9.14303 6.17234 8.52489 5.87921 7.66791 6.04722C6.711 6.2349 6.1027 6.91285 5.795 7.80917C4.17942 8.31478 3.73716 10.3014 4.70746 11.6148C5.53767 12.7389 6.91796 13.0667 8.2589 13.0104C9.37438 13.6341 10.4596 14.3223 11.5959 14.9038L11.8603 14.951C11.038 15.5137 10.5926 16.4127 10.6512 17.4157C10.665 17.649 10.7047 18.0826 11.0541 17.9489C11.2981 17.8556 11.1883 17.6286 11.18 17.4531C11.1658 17.1466 11.1808 16.8538 11.2701 16.5599C11.4983 15.8103 12.1491 15.2162 12.9365 15.1206C12.4253 15.6443 12.2294 16.3266 12.3376 17.0506C12.3506 17.1371 12.3769 17.276 12.412 17.3535C12.5217 17.5943 12.8743 17.5436 12.914 17.2772C12.6626 16.3203 12.9793 15.4932 13.9272 15.1387C14.0382 15.097 14.3557 14.9841 14.4564 14.9695ZM14.107 7.58725L14.013 7.60614V7.62463C14.039 7.63329 14.1314 7.59827 14.107 7.58725ZM23.4912 13.459C22.7515 11.4857 20.8613 10.0303 18.7771 9.74267C18.4037 9.69113 18.3309 9.6809 17.9961 9.86189C16.4966 10.6732 15.9528 13.001 16.41 14.5453C16.5017 14.8546 16.6366 15.1458 16.8448 15.3948C17.13 15.4196 17.3925 15.5353 17.6317 15.6848C17.8367 15.5149 18.0334 15.3339 18.244 15.1702C19.5066 14.1908 21.4354 13.2681 23.0659 13.4031C23.1257 13.4082 23.4743 13.4739 23.4909 13.4594L23.4912 13.459ZM20.9239 20.5021C22.3341 19.7749 23.3409 18.4167 23.5455 16.8271C23.5983 16.4187 23.6238 15.6994 23.5243 15.3047C23.4983 15.2017 23.424 15.1792 23.3343 15.1363C22.3313 14.6583 20.7551 15.252 19.8347 15.7407C19.1832 16.0866 18.5457 16.5265 18.0189 17.0415C18.0181 17.1489 18.0633 17.252 18.072 17.3586C18.0992 17.6817 18.0275 17.9732 17.9217 18.2735C19.1426 18.5682 20.4423 19.2796 20.9239 20.5021ZM12.3474 19.4126C12.0354 19.4369 11.6408 19.5373 11.3567 19.6679C11.2532 19.7155 11.1513 19.7301 11.2375 19.8505C11.4708 20.1759 12.3903 20.4635 12.7189 20.7858C12.8247 20.8896 12.6835 20.949 12.5914 21.0159C12.2231 21.2843 11.5589 21.5215 11.2658 21.8237C11.1753 21.917 11.1761 21.9492 11.2866 22.0098C12.2353 22.5296 13.5613 22.3089 14.4462 21.7564L14.4938 21.7474C16.133 21.8446 17.8013 21.9831 19.4019 21.5385C19.4865 21.5149 20.0578 21.3445 20.0724 21.3012C19.9642 20.8912 19.5861 20.5237 19.2489 20.2782C18.744 19.9103 17.8536 19.5499 17.2296 19.503C17.0207 19.4873 16.9699 19.5656 16.7932 19.6282C16.0417 19.8957 15.2591 19.9669 14.4651 19.9638C13.8391 19.5829 13.0879 19.3535 12.3474 19.4118V19.4126Z" fill="#A9A8B1"/>
<path d="M5.68601 8.229C5.30868 9.74779 5.83278 11.3823 7.06433 12.3447C6.01849 12.2467 4.87744 11.4834 4.67205 10.4041C4.51348 9.5727 4.87468 8.57644 5.68601 8.229Z" fill="#A9A8B1"/>
<path d="M12.5406 11.2638C12.9046 11.2638 13.1997 10.9687 13.1997 10.6047C13.1997 10.2407 12.9046 9.94568 12.5406 9.94568C12.1766 9.94568 11.8816 10.2407 11.8816 10.6047C11.8816 10.9687 12.1766 11.2638 12.5406 11.2638Z" fill="#A9A8B1"/>
</g>
<rect x="0.5" y="0.5" width="27" height="27" rx="13.5" stroke="white"/>
<defs>
<clipPath id="clip0_2380_88">
<rect width="28" height="28" rx="14" fill="white"/>
</clipPath>
</defs>
</svg>
