<svg width="28" height="28" viewBox="0 0 28 28" fill="none" xmlns="http://www.w3.org/2000/svg">
<g clip-path="url(#clip0_2380_119)">
<rect width="28" height="28" rx="14" fill="white"/>
<path d="M28 13.9998C28 21.7317 21.7321 27.9996 14.0002 27.9996C6.26825 27.9996 0 21.7317 0 13.9998C0 6.26786 6.26786 0 13.9998 0C21.7318 0 27.9996 6.26786 27.9996 13.9998H28ZM9.85523 13.975V13.9561C10.6085 13.5536 11.3213 13.0705 12.0774 12.6712L14.3389 13.4422L16.9327 11.9533L18.6181 13.5383L19.6538 12.7846L19.6585 12.6857C19.0587 9.5843 15.8864 4.11583 12.0758 6.54823C11.3804 6.99203 10.7802 7.63822 10.2939 8.30018C8.34152 10.9574 7.00975 15.9305 8.69987 18.9575C10.5377 22.2488 14.9508 23.0789 17.877 20.6827C19.5526 19.3108 20.172 17.4198 20.079 15.2879C20.0755 15.2111 20.0783 14.7641 20.0424 14.7389L18.5437 14.7263L16.3834 13.3512L13.643 14.5227L13.543 14.4739L12.1136 13.389C11.3847 13.5607 10.6617 13.7785 9.93596 13.9707C9.90839 13.9781 9.87452 13.9703 9.85641 13.9754L9.85523 13.975Z" fill="#A9A8B1"/>
<path d="M9.85522 13.9561V13.975C9.8501 13.9765 9.81387 14.038 9.76071 14.0124C9.77095 13.9663 9.82805 13.9702 9.85522 13.9561Z" fill="#A9A8B1"/>
</g>
<rect x="0.5" y="0.5" width="27" height="27" rx="13.5" stroke="white"/>
<defs>
<clipPath id="clip0_2380_119">
<rect width="28" height="28" rx="14" fill="white"/>
</clipPath>
</defs>
</svg>
