<svg width="28" height="28" viewBox="0 0 28 28" fill="none" xmlns="http://www.w3.org/2000/svg">
<g clip-path="url(#clip0_2352_22)">
<rect width="28" height="28" rx="14" fill="white"/>
<path d="M28 13.9998C28 21.7317 21.7321 27.9996 14.0002 27.9996C6.26825 27.9996 0 21.7321 0 13.9998C0 6.26746 6.26786 0 13.9998 0C21.7318 0 27.9996 6.26786 27.9996 13.9998H28ZM17.1835 5.60906C15.1178 5.7264 13.2016 7.04125 12.2333 8.84084C11.8612 9.53232 11.7674 10.2002 11.2165 10.8098C10.4589 11.6481 9.62447 11.6879 8.70223 12.1884C5.41886 13.9699 4.18317 18.8918 7.38187 21.3706C10.1825 23.5412 14.2191 22.0767 15.7797 19.134C16.09 18.5484 16.2062 17.9353 16.6126 17.3966C17.4076 16.342 18.396 16.3334 19.4415 15.7281C21.6258 14.4641 22.8938 11.8686 22.3401 9.36024C21.8066 6.9428 19.6211 5.47045 17.1835 5.60906Z" fill="#A9A8B1"/>
<path d="M15.3863 9.61182L18.4334 12.7373C17.9577 13.2075 17.3722 13.5961 16.752 13.8517C16.4428 13.9789 16.1168 14.0561 15.814 14.1986C15.5907 14.3034 15.3899 14.4498 15.1756 14.5621L13.4674 12.7975C13.6127 12.5809 13.7639 12.3659 13.8777 12.1301C14.0254 11.8245 14.114 11.4929 14.255 11.1846C14.5208 10.6026 14.9205 10.0489 15.3863 9.61221V9.61182Z" fill="#A9A8B1"/>
<path d="M12.835 13.4481C12.8814 13.441 13.2689 13.8824 13.3315 13.947C13.654 14.277 14.0053 14.6086 14.3152 14.9476C14.3542 14.9901 14.5082 15.1559 14.5046 15.1929C14.5026 15.2146 14.2786 15.4851 14.2427 15.5375C13.743 16.2632 13.5906 17.0823 13.072 17.8246C13.0177 17.9026 12.64 18.4042 12.5885 18.3956L9.57523 15.2693C9.96271 14.9177 10.4329 14.6113 10.9141 14.401C11.2496 14.2542 11.6079 14.1652 11.9407 14.0104C12.2734 13.8556 12.5554 13.6635 12.835 13.4489V13.4481Z" fill="#A9A8B1"/>
<path d="M11.9324 19.0181C11.2653 19.495 10.5227 19.8773 9.72723 20.092C9.02039 20.2826 8.2529 20.3605 7.5307 20.2207L7.51534 20.1983C7.3346 18.8767 7.82525 17.478 8.56635 16.3987C8.68252 16.2293 8.81837 16.0746 8.92982 15.9021L11.9324 19.0177V19.0181Z" fill="#A9A8B1"/>
<path d="M20.3988 7.77761C20.4512 8.43642 20.3236 9.1216 20.1353 9.75205C19.8916 10.5699 19.512 11.3398 19.0367 12.0454H18.9949L16.0908 9.03457C16.7303 8.6081 17.4501 8.27142 18.1885 8.0513C18.9268 7.83117 19.6612 7.70555 20.3984 7.77801L20.3988 7.77761Z" fill="#A9A8B1"/>
<path d="M11.2862 11.8801C11.3138 11.8722 11.337 11.8754 11.3587 11.8951L12.2293 12.8027C12.2459 12.8401 12.2112 12.8567 12.1888 12.8783C11.8186 13.2363 11.1232 13.397 10.6554 13.5934C10.0482 13.8486 9.48231 14.2144 8.99323 14.6535L8.06941 13.7285C8.04184 13.6675 8.18636 13.5679 8.24071 13.5214C8.59905 13.215 9.05269 12.9339 9.48388 12.7429C9.96036 12.5318 10.4207 12.4294 10.8818 12.1569C10.9523 12.1152 11.2579 11.888 11.2866 11.8801H11.2862Z" fill="#A9A8B1"/>
<path d="M15.1024 15.8096C15.1241 15.8037 15.1414 15.8104 15.1567 15.8258C15.3847 16.0928 15.6738 16.3314 15.903 16.5917C15.9333 16.6263 16.0416 16.7441 16.0329 16.7775C16.029 16.7925 15.8699 16.9811 15.8415 17.0229C15.4099 17.6588 15.2729 18.3653 14.8709 19.019C14.6677 19.3493 14.4231 19.6502 14.1648 19.9381L14.1014 19.9633C13.8655 19.7049 13.5934 19.4691 13.3603 19.2096C13.3272 19.1725 13.1937 19.028 13.202 18.9957C13.2067 18.978 13.4111 18.7685 13.4454 18.7268C14.0565 17.9802 14.2361 17.4411 14.6141 16.5885C14.6657 16.472 15.0126 15.8329 15.1028 15.8092L15.1024 15.8096Z" fill="#A9A8B1"/>
<path d="M15.7702 15.1847C16.1869 14.8992 16.6728 14.8007 17.13 14.6074C17.8254 14.3132 18.4728 13.8773 19.0134 13.3528L19.9447 14.2892C19.9538 14.3412 19.4718 14.7035 19.3962 14.757C19.2446 14.8637 19.082 14.9657 18.9197 15.0551C18.1916 15.4556 17.3513 15.5781 16.7015 16.127C16.6779 16.136 16.6653 16.1231 16.648 16.1112C16.531 16.0329 16.3668 15.8108 16.2621 15.7033C16.1376 15.5761 15.8777 15.3611 15.7887 15.2319C15.7777 15.2162 15.7628 15.2122 15.7702 15.1847Z" fill="#A9A8B1"/>
<path d="M12.8783 12.1797L12.831 12.1612C12.6054 11.8919 12.2986 11.6501 12.0754 11.3863C12.0454 11.3508 11.9686 11.2669 11.9742 11.2299C11.9777 11.2051 12.223 10.8818 12.2632 10.8176C12.5298 10.3912 12.633 9.96627 12.8377 9.5213C13.0252 9.11491 13.2906 8.69553 13.5784 8.35333C13.6418 8.27773 13.7773 8.1084 13.8509 8.05878C13.8687 8.04697 13.8813 8.03437 13.9049 8.04303C14.136 8.30175 14.418 8.53959 14.646 8.79673C14.6775 8.83218 14.794 8.95937 14.7854 8.99166C14.7763 9.0267 14.5212 9.27243 14.4755 9.32598C14.0573 9.81112 13.6989 10.3494 13.4426 10.9385C13.2595 11.3591 13.1496 11.7982 12.8787 12.1793L12.8783 12.1797Z" fill="#A9A8B1"/>
<path d="M19.5116 6.90773C19.5376 6.93451 19.5104 6.94238 19.4836 6.94553C18.1629 7.10029 17.043 7.46375 15.9037 8.14697C15.8455 8.18201 15.5371 8.39899 15.5139 8.40135C15.4922 8.40372 15.4729 8.39741 15.4572 8.38245L14.5621 7.46218C14.557 7.43343 14.6003 7.40705 14.6192 7.3909C14.8264 7.20976 15.3032 6.9731 15.5631 6.86087C16.8343 6.31115 18.2613 6.28791 19.512 6.90773H19.5116Z" fill="#A9A8B1"/>
<path d="M21.2309 8.70264C21.9716 10.3042 21.6227 12.2223 20.589 13.6064L20.5413 13.6352L19.625 12.6806C20.018 12.1037 20.3681 11.5028 20.6351 10.8562C20.9387 10.1214 21.0536 9.52407 21.1942 8.75068C21.1982 8.72823 21.2045 8.70579 21.2309 8.70264Z" fill="#A9A8B1"/>
<path d="M13.4458 20.5693C12.0581 21.5601 10.2116 21.8893 8.62741 21.1552C8.63056 21.1296 8.65301 21.1222 8.67545 21.1186C8.77469 21.1021 8.92078 21.1104 9.03143 21.0966C10.3069 20.9359 11.5135 20.3948 12.5302 19.625L13.4461 20.5697L13.4458 20.5693Z" fill="#A9A8B1"/>
<path d="M6.68053 19.0201C6.59311 18.9067 6.54861 18.7173 6.51199 18.5748C6.17688 17.2674 6.4734 15.8144 7.2019 14.6944C7.25624 14.6109 7.35626 14.4491 7.42084 14.3841C7.43345 14.3711 7.4366 14.3459 7.46377 14.3534L8.34387 15.2879C8.34387 15.3217 8.07059 15.6454 8.0257 15.7072C7.32437 16.6771 6.81166 17.8195 6.68053 19.0201Z" fill="#A9A8B1"/>
</g>
<rect x="0.5" y="0.5" width="27" height="27" rx="13.5" stroke="white"/>
<defs>
<clipPath id="clip0_2352_22">
<rect width="28" height="28" rx="14" fill="white"/>
</clipPath>
</defs>
</svg>
