<svg width="28" height="28" viewBox="0 0 28 28" fill="none" xmlns="http://www.w3.org/2000/svg">
<g clip-path="url(#clip0_2354_39)">
<rect width="28" height="28" rx="14" fill="white"/>
<path d="M28 14C28 21.732 21.732 28 14 28C6.26795 28 0 21.732 0 14C0 6.26795 6.26795 0 14 0C21.732 0 28 6.26795 28 14ZM9.36416 4.48318C7.4275 4.58351 6.31556 6.76136 7.39642 8.38442C7.97049 9.24611 8.95692 9.62739 9.97246 9.45347C10.0515 9.44009 10.2369 9.37084 10.2927 9.39642L11.9272 11.0301C11.9422 11.0506 11.9347 11.0647 11.9268 11.0852C11.8977 11.1596 11.7706 11.3067 11.7206 11.3897C10.672 13.1359 10.7551 15.3177 11.9587 16.964C12.0594 17.1017 12.1747 17.2276 12.277 17.3638L10.809 18.8432C10.7519 18.8589 10.5324 18.7224 10.458 18.6913C8.26559 17.7848 6.15109 20.1381 7.28861 22.2196C8.63348 24.6803 12.5025 23.3889 11.9343 20.4438C11.9213 20.3773 11.8631 20.2628 11.889 20.2062L13.6364 18.4588C13.6624 18.4419 13.6852 18.4505 13.7116 18.458C13.8017 18.4832 13.9662 18.5859 14.0708 18.6284C15.5943 19.2485 17.2811 19.123 18.6756 18.2499C21.0868 16.7405 21.7627 13.4834 20.1275 11.1367C18.5717 8.90419 15.4889 8.30336 13.2194 9.8312H13.1828L11.6553 8.29668C11.6419 8.24789 11.7383 8.11017 11.7635 8.05272C12.517 6.3195 11.2666 4.38442 9.36455 4.48279L9.36416 4.48318Z" fill="#A9A8B1"/>
<path d="M17.8391 12.4521C18.4131 13.0262 18.2805 14.5044 17.3398 14.6866C16.2471 14.8983 15.8528 13.7836 16.1224 12.9026C16.3462 12.1712 17.3067 11.9193 17.8395 12.4521H17.8391ZM17.0104 12.545C16.4053 12.6292 16.4179 13.9595 16.7901 14.2471C17.1733 14.5434 17.5688 14.2483 17.6486 13.8249C17.7395 13.3413 17.7139 12.447 17.0104 12.545Z" fill="#A9A8B1"/>
<path d="M13.2713 10.9207C13.4279 10.8916 13.5715 10.9353 13.6624 11.0687C13.8973 11.4129 13.4865 11.625 13.2859 11.8414C12.17 13.0451 12.0578 14.8003 12.9365 16.1755L13.324 16.6941C12.8963 16.3309 12.5371 15.843 12.3104 15.3287C11.7309 14.0146 11.9524 12.4855 12.8157 11.3523C12.9058 11.2339 13.1285 10.9475 13.2717 10.9207H13.2713Z" fill="#A9A8B1"/>
<path d="M15.52 12.7251C15.47 12.7542 15.3472 12.6382 15.2906 12.6122C15.0399 12.4957 14.5347 12.4792 14.5784 12.8707C14.6052 13.1123 15.0875 13.1874 15.2772 13.2673C15.5172 13.3684 15.7446 13.5427 15.7824 13.8193C15.8993 14.6775 14.9018 14.8837 14.2829 14.5823C14.2227 14.5532 13.9957 14.4178 14.0146 14.3466L14.2318 14.1074C14.4592 14.2813 14.7602 14.4068 15.0474 14.3202C15.3185 14.2384 15.4027 13.8929 15.1631 13.7206C14.846 13.4928 14.2561 13.5443 14.12 13.0454C13.9028 12.2482 14.9113 12.0011 15.4857 12.3025C15.5251 12.323 15.6884 12.4343 15.7033 12.4638C15.7175 12.4918 15.7073 12.4914 15.6939 12.5115C15.6443 12.5839 15.5597 12.6444 15.5196 12.7247L15.52 12.7251Z" fill="#A9A8B1"/>
<path d="M18.7141 15.5986H19.2618L19.243 15.8253H18.4029C18.3541 15.7777 18.3667 15.6675 18.3958 15.6105C18.4426 15.5192 18.7177 15.291 18.8082 15.1733C18.9073 15.0439 18.9829 14.9557 18.9585 14.7787C18.9282 14.5571 18.6114 14.6173 18.5135 14.7661L18.3584 14.6712C18.3344 14.6295 18.4371 14.5379 18.4702 14.5142C18.6795 14.3675 19.0643 14.3718 19.1969 14.6158C19.4051 14.9994 18.9341 15.3472 18.7145 15.5986H18.7141Z" fill="#A9A8B1"/>
</g>
<rect x="0.5" y="0.5" width="27" height="27" rx="13.5" stroke="white"/>
<defs>
<clipPath id="clip0_2354_39">
<rect width="28" height="28" rx="14" fill="white"/>
</clipPath>
</defs>
</svg>
