<svg width="28" height="28" viewBox="0 0 28 28" fill="none" xmlns="http://www.w3.org/2000/svg">
<g clip-path="url(#clip0_2380_10)">
<rect width="28" height="28" rx="14" fill="white"/>
<path d="M28 13.9998C28 21.7317 21.7321 27.9996 14.0002 27.9996C6.26825 27.9996 0 21.7317 0 13.9998C0 6.26786 6.26786 0 13.9998 0C21.7318 0 27.9996 6.26786 27.9996 13.9998H28ZM16.8284 4.79117C15.5879 4.78723 14.3841 5.39248 13.6572 6.39151C13.5253 6.57304 13.4186 6.77072 13.3012 6.96131C11.048 6.79592 8.65104 7.66106 7.42913 9.63038C6.83412 10.5892 6.58328 11.7135 6.60533 12.8413H7.73903C7.55317 15.0618 8.04934 17.3355 9.22399 19.2269C10.338 21.0206 12.0419 22.424 13.9998 23.2108C16.4708 22.2236 18.5137 20.2425 19.5203 17.7726C20.0767 16.4082 20.3275 14.948 20.2854 13.4749L20.2673 12.8409H21.3821C21.44 11.4331 20.9973 9.98045 20.0503 8.92905C18.7047 7.43543 16.6515 6.81797 14.674 6.96407C15.2123 6.34504 16.0116 5.97252 16.8284 5.90597V4.79117Z" fill="#A9A8B1"/>
<path d="M15.5623 20.3617C15.5541 20.3263 15.5824 20.3168 15.6001 20.2956C15.7766 20.0833 15.988 19.888 16.1668 19.6714C17.0268 18.6303 17.7037 17.2961 17.9565 15.9624C18.0069 15.6954 18.0156 15.4178 18.0617 15.1606C18.1853 14.4711 19.1674 14.6267 19.0686 15.3174C19.0454 15.4788 18.9634 15.7174 18.9123 15.8789C18.3649 17.5966 17.23 19.1111 15.8061 20.1991L15.5623 20.3617Z" fill="#A9A8B1"/>
<path d="M15.534 20.3622L15.487 20.4093L15.4959 20.4182L15.5429 20.3712L15.534 20.3622Z" fill="#A9A8B1"/>
</g>
<rect x="0.5" y="0.5" width="27" height="27" rx="13.5" stroke="white"/>
<defs>
<clipPath id="clip0_2380_10">
<rect width="28" height="28" rx="14" fill="white"/>
</clipPath>
</defs>
</svg>
