<svg width="28" height="28" viewBox="0 0 28 28" fill="none" xmlns="http://www.w3.org/2000/svg">
<g clip-path="url(#clip0_2380_46)">
<rect width="28" height="28" rx="14" fill="white"/>
<path d="M28 14C28 21.732 21.732 28 14 28C6.26795 28 0 21.732 0 14C0 6.26795 6.26795 0 14 0C21.732 0 28 6.26795 28 14ZM16.1963 5.06945C15.9174 4.78103 15.5219 4.73028 15.145 4.82864C14.9109 3.98544 14.0677 3.27169 13.2485 3.94964C12.8979 4.23962 12.7865 4.65788 12.7854 5.10092C12.467 5.08597 12.1487 5.10486 11.889 5.30907C11.7934 5.38422 11.7403 5.48613 11.6581 5.57033C11.3634 5.48692 11.0824 5.43105 10.7799 5.52154C10.0464 5.7407 10.0055 6.54299 10.1586 7.17529C9.91658 7.28467 9.63408 7.49321 9.52823 7.74425C9.31419 8.25182 9.68759 8.85579 9.9882 9.24848C9.83986 9.43813 9.6931 9.6026 9.62227 9.83947C9.46921 10.3525 9.67854 10.7511 10.142 10.9817C10.4529 11.1363 10.9671 11.1788 11.01 11.6054C11.0746 12.244 10.9998 13.0832 10.9908 13.738C10.9723 15.0372 10.9376 16.3309 10.8979 17.629C10.8401 19.5097 10.6469 21.2922 11.0541 23.1544C11.2036 23.8379 11.5629 25.1312 12.0492 25.6337C12.7031 26.3093 14.5568 26.2825 15.3716 25.9548C15.6467 25.8442 15.8867 25.5857 16.0803 25.3606C16.471 24.9058 16.6547 24.3313 16.7291 23.7435C16.8314 22.9337 17.0246 22.131 17.0533 21.311C17.086 20.373 17.0077 19.4338 16.9762 18.4977C16.9097 16.5154 16.8538 14.5339 16.8251 12.5501C16.822 12.3195 16.8082 12.1066 16.9069 11.8938C17.2316 11.1942 18.4135 10.7244 18.5166 10.0106C18.576 9.60024 18.4277 9.2351 18.0897 8.99862C18.277 8.66181 18.4737 8.23057 18.3651 7.83828C18.2778 7.52272 17.9213 7.25438 17.6207 7.15719C17.6919 6.71139 17.7478 6.26559 17.5156 5.8556C17.2957 5.46724 16.8251 5.24139 16.384 5.32402C16.3183 5.24375 16.2683 5.14421 16.1963 5.06945Z" fill="#C88233"/>
<path d="M16.6032 20.9191L15.9933 19.2733C15.6628 17.5928 15.7364 15.8725 15.6978 14.1684C15.6667 12.7972 15.6707 11.5912 15.2064 10.2794C15.0962 9.96852 14.7318 9.27838 14.9065 8.97974C15.0789 8.68542 15.5188 8.84753 15.6966 8.59925C15.9016 8.31281 15.6278 8.09325 15.5105 7.84143C15.3933 7.58961 15.2327 7.23392 15.6518 7.19457C15.8666 7.17451 16.0153 7.35039 16.2384 7.25281C16.528 7.1265 16.4383 6.78222 16.4714 6.52253C16.5044 6.26284 16.5705 5.98348 16.8963 6.00197C17.3819 6.02951 17.2378 6.71769 17.1599 7.02263C17.1045 7.24021 16.9451 7.48889 17.1599 7.68326C17.315 7.82373 17.3937 7.75094 17.551 7.76274C17.6502 7.77022 17.9449 7.91108 17.9571 8.01613C17.9677 8.10781 17.8485 8.3675 17.8025 8.458C17.6884 8.68188 17.4102 8.92859 17.4613 9.17608C17.5345 9.53335 17.9166 9.40547 18.0543 9.64037C18.1338 9.77651 18.0771 9.88983 17.9819 9.99685C17.7442 10.264 17.35 10.5131 17.084 10.7795C16.7865 11.0773 16.4411 11.5318 16.3978 11.9622C16.3348 12.5894 16.4061 13.3952 16.4151 14.0362C16.443 16.0193 16.5135 18.0028 16.604 19.9839L16.6032 20.9191Z" fill="#C88233"/>
<path d="M14.9982 17.1052L14.3282 15.0092L13.6581 17.0863L13.734 14.0755C13.6659 12.3993 14.0681 10.6901 13.182 9.16935C13.0557 8.95255 12.5717 8.3234 12.5634 8.12509C12.5552 7.92678 13.0364 7.79222 13.1477 7.67378C13.4031 7.40268 13.0883 7.1005 12.9557 6.8652C12.8428 6.66453 12.6654 6.31002 12.6398 6.08574C12.6114 5.83707 12.652 5.77136 12.9117 5.7749C13.2264 5.77884 13.6683 6.07669 13.8438 5.67024C13.9178 5.49908 13.8532 5.44872 13.8462 5.29448C13.8363 5.08161 13.8265 4.72788 13.9508 4.55004C14.2656 4.10109 14.6008 4.59489 14.7086 4.92265C14.8149 5.2449 14.7425 5.75169 15.2504 5.68008C15.3551 5.66552 15.3948 5.60178 15.4755 5.56518C15.6577 5.48256 15.9319 5.37907 16.0165 5.63522C15.8312 5.87248 15.7765 6.15971 15.7159 6.44773C15.3405 6.43278 14.8928 6.63621 14.7228 6.98364C14.5406 7.35547 14.6744 7.76113 14.807 8.12391C14.5249 8.27579 14.2495 8.49692 14.1609 8.81956C13.9839 9.46406 14.3038 9.96534 14.5068 10.543C14.9786 11.8859 14.9506 13.2898 14.94 14.698L14.997 17.1044L14.9982 17.1052Z" fill="#C88233"/>
<path d="M12.3136 7.30238C12.3097 7.30907 12.2093 7.36809 12.1849 7.39051C11.2646 8.24159 12.3549 9.07967 12.7169 9.89888C13.1592 10.8983 12.9931 12.4489 12.9774 13.5455C12.9502 15.4432 12.9699 17.3484 12.6295 19.2209L11.8643 21.3724L11.8635 19.7195C11.8643 19.675 11.8831 19.6337 11.8839 19.5888C11.9205 17.8623 11.9972 16.1397 12.0334 14.4139C12.0527 13.5054 12.1405 12.4415 12.0716 11.5451C12.0275 10.9671 11.7222 10.6469 11.2162 10.4183C11.1104 10.3703 10.6866 10.2396 10.6465 10.1574C10.5918 10.0449 10.698 9.85795 10.7791 9.77965C10.9302 9.63328 11.1568 9.69978 11.2508 9.45819C11.3704 9.15089 11.0675 8.96085 10.9026 8.74955C10.7881 8.60279 10.5068 8.19437 10.5225 8.01377C10.5288 7.94334 10.6299 7.87566 10.6882 7.83789C10.8688 7.72063 11.204 7.67539 11.2807 7.46724C11.3575 7.2591 11.2076 7.00373 11.1725 6.78064C11.1171 6.42809 11.099 6.05548 11.5829 6.18139C11.6659 6.20303 11.8686 6.30651 11.9225 6.37064C11.9764 6.43478 12.0606 6.74011 12.1074 6.84635C12.1582 6.96124 12.2754 7.12886 12.3097 7.22959C12.3171 7.25123 12.327 7.28074 12.3148 7.30238H12.3136Z" fill="#C88233"/>
</g>
<rect x="0.5" y="0.5" width="27" height="27" rx="13.5" stroke="white"/>
<defs>
<clipPath id="clip0_2380_46">
<rect width="28" height="28" rx="14" fill="white"/>
</clipPath>
</defs>
</svg>
