<svg width="28" height="28" viewBox="0 0 28 28" fill="none" xmlns="http://www.w3.org/2000/svg">
<g clip-path="url(#clip0_2380_321)">
<rect width="28" height="28" rx="14" fill="white"/>
<path d="M28 14.0002C28 21.7322 21.7322 28.0004 13.9998 28.0004C6.26745 28.0004 0 21.7322 0 14.0002C0 6.26824 6.26785 0 14.0002 0C21.7325 0 28.0004 6.26785 28.0004 14.0002H28ZM19.3851 5.26545C16.4215 4.41865 13.2725 4.27169 10.2413 4.85796C9.66367 4.96956 9.09547 5.11888 8.52649 5.26466L8.53042 7.56888C8.56893 7.79129 8.6931 7.96262 8.86992 8.09661L9.16659 8.24278C8.7874 8.28483 8.48051 8.42747 8.4145 8.83888L7.50601 21.4331C7.53273 22.9448 8.6982 24.1829 10.2126 24.2714L17.7178 24.2706C19.2362 24.1708 20.4229 22.9035 20.4056 21.3754C20.0291 17.1469 19.723 12.9082 19.312 8.68524C19.2185 8.44083 18.9729 8.26636 18.7081 8.28051L19.0228 8.13355C19.2051 8.01291 19.3387 7.82391 19.382 7.60622L19.3851 5.26545Z" fill="#B32936"/>
<path d="M19.6507 20.6504C19.6947 20.9844 19.7163 21.3211 19.7069 21.6591C19.6016 22.6371 18.8177 23.4352 17.8475 23.5711C15.2627 23.6061 12.6677 23.6065 10.0833 23.5711C9.21805 23.4643 8.47185 22.8061 8.2628 21.9601C8.15867 21.5388 8.21762 21.1255 8.24237 20.6979L8.27066 20.6508H19.6503L19.6507 20.6504Z" fill="#B32936"/>
<path d="M12.9758 12.4477L13.9845 16.9921L14.946 12.4477H16.9543L17.4636 19.198H15.8985L15.7468 16.0781C15.7445 15.9268 15.7519 15.7751 15.7484 15.6238C15.7472 15.579 15.7291 15.5382 15.728 15.4934C15.7162 14.968 15.7331 14.4411 15.7472 13.9181L14.7201 18.4817L13.2131 18.5014L12.1172 13.8992C12.1023 13.8992 12.1058 14.0367 12.107 14.0603C12.1498 14.8478 12.1478 15.6101 12.1258 16.3967C12.0999 17.33 12.0457 18.2617 12.0135 19.1976H10.4484L10.9576 12.4473H12.9754L12.9758 12.4477Z" fill="#B32936"/>
<path d="M18.6703 8.95947L18.84 10.958H8.95947L9.0915 8.95947H18.6703Z" fill="#B32936"/>
</g>
<rect x="0.5" y="0.5" width="27" height="27" rx="13.5" stroke="white"/>
<defs>
<clipPath id="clip0_2380_321">
<rect width="28" height="28" rx="14" fill="white"/>
</clipPath>
</defs>
</svg>
