<svg width="28" height="28" viewBox="0 0 28 28" fill="none" xmlns="http://www.w3.org/2000/svg">
<g clip-path="url(#clip0_2357_21)">
<rect width="28" height="28" rx="14" fill="white"/>
<path d="M28 13.9998C28 21.7317 21.7321 27.9996 14.0002 27.9996C6.26825 27.9996 0 21.7321 0 13.9998C0 6.26746 6.26786 0 13.9998 0C21.7318 0 27.9996 6.26786 27.9996 13.9998H28ZM21.9255 4.28594C21.9007 4.25956 21.827 4.24578 21.7896 4.24223C21.4931 4.21506 20.8847 4.50764 20.5894 4.63129C19.1316 5.24205 17.5809 6.02332 16.2743 6.9113C15.2631 7.59845 14.407 8.2545 14.4853 9.61935C14.4964 9.81191 14.5854 10.0746 14.581 10.2435C14.5739 10.5148 14.3109 10.4601 14.116 10.4613C11.4922 10.4806 9.07357 12.5235 9.44215 15.3052C9.46617 15.4855 9.55832 15.7407 9.56737 15.8978C9.57052 15.9557 9.53823 16.0428 9.49492 16.0806C9.42246 16.1436 8.90779 16.2837 8.76012 16.3471C6.74355 17.2162 6.00324 19.3706 6.40293 21.4431C6.51712 22.035 6.82073 22.8686 7.22948 23.3187C7.26649 23.3596 7.30115 23.4183 7.36021 23.3951C7.44133 23.3632 7.59648 23.2277 7.68863 23.1742C8.49156 22.7064 9.28542 22.6213 10.1195 22.2791C11.4182 21.7467 13.072 20.5559 12.9543 18.9729C12.9437 18.8292 12.8547 18.5897 12.883 18.4665C12.9271 18.2747 13.2311 18.307 13.3749 18.2783C14.4723 18.0597 15.684 17.2304 16.3633 16.3538C17.1158 15.3828 17.3926 14.264 17.1402 13.0488C17.1044 12.8775 16.9949 12.6196 16.9804 12.4703C16.9555 12.2199 17.2359 12.2297 17.4001 12.175C17.9105 12.0053 18.8689 11.2921 19.2289 10.8858C19.7148 10.3368 20.1814 9.21257 20.3374 8.49825C20.5461 7.54293 20.5772 6.83097 21.1029 5.95677C21.3498 5.54566 22.0027 4.85024 21.9495 4.36549C21.9468 4.3395 21.944 4.30524 21.9259 4.28555L21.9255 4.28594ZM10.7397 6.32732C9.03655 6.46396 8.91133 8.31002 10.3526 9.0271C11.1984 9.44806 12.5916 9.30944 12.8433 8.2419C13.1146 7.09087 11.7604 6.24502 10.7393 6.32692L10.7397 6.32732ZM7.09205 10.2195C6.284 10.3207 5.95244 11.274 5.99969 11.9821C6.05994 12.8791 6.89122 13.8955 7.86505 13.506C9.34882 12.9126 8.80461 10.0049 7.09165 10.2195H7.09205ZM18.374 17.382C17.245 17.4868 16.0825 18.9918 16.8855 19.9932C17.6411 20.9359 19.1245 20.2338 19.5659 19.3112C20.0298 18.3417 19.5175 17.2761 18.374 17.3824V17.382Z" fill="#B32936"/>
<path d="M13.7064 12.2609C15.2134 12.1451 15.6356 13.7734 15.024 14.9201C14.4337 16.027 12.6464 16.8933 11.8052 15.6057C10.9492 14.2951 12.2396 12.3735 13.7064 12.2609Z" fill="#B32936"/>
<path d="M9.62486 17.6651C11.0685 17.6182 11.4304 19.1757 10.848 20.2676C10.2762 21.3403 8.57424 22.1605 7.73115 20.9457C6.84829 19.6734 8.16668 17.7123 9.62447 17.6651H9.62486Z" fill="#B32936"/>
<path d="M17.41 7.57441C18.6925 7.44249 19.0493 8.81325 18.4941 9.77369C18.0195 10.5947 16.7413 11.1952 16.0266 10.3262C15.2127 9.33659 16.2341 7.69569 17.4096 7.5748L17.41 7.57441Z" fill="#B32936"/>
</g>
<rect x="0.5" y="0.5" width="27" height="27" rx="13.5" stroke="white"/>
<defs>
<clipPath id="clip0_2357_21">
<rect width="28" height="28" rx="14" fill="white"/>
</clipPath>
</defs>
</svg>
