<svg width="28" height="28" viewBox="0 0 28 28" fill="none" xmlns="http://www.w3.org/2000/svg">
<g clip-path="url(#clip0_2380_160)">
<rect width="28" height="28" rx="14" fill="white"/>
<path d="M28 13.9998C28 21.7318 21.7322 27.9996 14.0002 27.9996C6.26824 27.9996 0 21.7318 0 13.9998C0 6.26785 6.26785 0 13.9998 0C21.7318 0 27.9996 6.26785 27.9996 13.9998H28ZM8.6762 10.1662C7.10678 10.5902 5.74798 11.4924 4.66935 12.6929C4.37425 13.0214 3.78916 13.6336 3.85085 14.0965C3.90075 14.4686 4.48388 15.1036 4.7448 15.39C7.12525 18.0027 10.4641 18.622 13.8434 17.8507C16.1123 17.3328 18.2511 16.1975 19.9812 14.6548C20.4633 15.6109 21.3644 16.2907 22.4076 16.5268C22.7035 16.594 23.3464 16.6954 23.6214 16.5976C23.8218 16.526 23.9161 16.2899 23.8159 16.0989L22.707 14.1169L24.1154 11.3026C24.2407 11.0736 24.0658 10.7796 23.8069 10.7714C23.691 10.7678 23.3963 10.8559 23.2713 10.8924C22.0532 11.2457 20.9742 12.0406 20.239 13.0642C20.2044 13.1121 20.0531 13.379 20.0197 13.3711C18.5454 12.0229 16.693 11.0107 14.7814 10.4252C13.2788 9.96466 11.5007 9.70375 9.93283 9.90494C9.75208 9.92812 9.57172 9.96427 9.39254 9.99688C9.61023 11.4162 9.57329 12.896 9.25147 14.2961C9.08015 15.0423 8.80587 15.8148 8.48484 16.5087C8.46833 16.5445 8.45026 16.5979 8.41214 16.6152C8.47344 16.3913 8.56225 16.1783 8.62865 15.9551C9.10687 14.3491 9.15402 12.6563 8.85853 11.0115C8.80744 10.7278 8.74064 10.4468 8.67581 10.1662H8.6762Z" fill="#525062"/>
<path d="M6.66511 13.4151C6.93073 13.4151 7.14607 13.1997 7.14607 12.9341C7.14607 12.6685 6.93073 12.4531 6.66511 12.4531C6.39948 12.4531 6.18414 12.6685 6.18414 12.9341C6.18414 13.1997 6.39948 13.4151 6.66511 13.4151Z" fill="#525062"/>
<path d="M8.40311 16.6337C8.41584 16.6401 8.41584 16.6465 8.40311 16.653V16.6337Z" fill="#525062"/>
</g>
<rect x="0.5" y="0.5" width="27" height="27" rx="13.5" stroke="white"/>
<defs>
<clipPath id="clip0_2380_160">
<rect width="28" height="28" rx="14" fill="white"/>
</clipPath>
</defs>
</svg>
