<svg width="28" height="28" viewBox="0 0 28 28" fill="none" xmlns="http://www.w3.org/2000/svg">
<g clip-path="url(#clip0_2380_179)">
<rect width="28" height="28" rx="14" fill="white"/>
<path d="M28 14C28 21.732 21.732 28 14 28C6.26795 28 0 21.732 0 14C0 6.26795 6.26795 0 14 0C21.732 0 28 6.26795 28 14ZM13.8942 2.06335C13.8702 2.07004 13.5739 2.35688 13.531 2.40016C11.1973 4.75389 11.5668 7.73638 13.7576 10.0287C13.7985 10.0716 13.913 10.2046 13.9646 10.1995C14.0956 10.0956 14.2298 9.94924 14.3435 9.82097C15.1415 8.91914 15.867 7.58961 15.9764 6.37458C16.111 4.88176 15.3594 3.21228 14.2105 2.26835C14.1586 2.22585 14.002 2.09089 13.9551 2.07004C13.9319 2.05941 13.9197 2.05587 13.8938 2.06296L13.8942 2.06335ZM19.3551 8.48161C17.9803 8.37576 16.6193 8.65827 15.5518 9.55735C14.5261 10.4214 13.9473 12.2742 14.1503 13.5825C14.1586 13.6364 14.205 13.8698 14.2388 13.8906C14.4442 13.8835 14.6614 13.8525 14.8684 13.821C16.255 13.6085 17.5109 13.132 18.4592 12.0685C19.3461 11.0738 19.581 9.77848 19.3547 8.48161H19.3551ZM13.7863 13.8997C13.9638 12.6008 13.7655 11.2068 12.9632 10.1436C11.9587 8.81212 10.2955 8.32028 8.67165 8.52056C8.51151 9.30474 8.54692 10.1483 8.8251 10.9018C9.56561 12.9081 11.806 13.7435 13.7863 13.8993V13.8997ZM19.3134 13.6589C17.6435 13.3941 15.9252 14.0413 14.9416 15.4228C14.1983 16.4663 13.985 17.7568 14.1637 19.0163C16.3026 18.9357 18.7472 17.8643 19.302 15.6105C19.422 15.1222 19.4728 14.484 19.4126 13.9847C19.3984 13.8682 19.3685 13.7627 19.3134 13.6589ZM13.7863 19.0163C13.9288 17.9272 13.8245 16.7854 13.3051 15.806C12.4466 14.1865 10.7043 13.4983 8.92347 13.6156C8.74287 13.6274 8.65512 13.6227 8.61735 13.8194C8.50089 14.4305 8.58863 15.304 8.77749 15.8965C9.43813 17.9689 11.7757 18.9058 13.786 19.0163H13.7863ZM13.8214 24.3762C13.9575 23.1049 13.7549 21.7564 12.9896 20.7098C12.0031 19.3606 10.3069 18.8743 8.687 19.0439C8.52213 19.7494 8.5363 20.5064 8.73972 21.2024C9.2528 22.9589 10.9557 23.9237 12.6496 24.2786C12.8924 24.3293 13.3968 24.4403 13.6258 24.432C13.6518 24.4312 13.8151 24.3856 13.8214 24.3762ZM19.3732 19.0561C17.7218 18.8491 15.9394 19.3866 14.9494 20.7743C14.1987 21.8269 14.0268 23.1725 14.2026 24.434C16.107 24.3195 18.3714 23.444 19.1253 21.5514C19.3527 20.9801 19.4405 20.3573 19.4314 19.7435L19.3732 19.0561Z" fill="#525062"/>
</g>
<rect x="0.5" y="0.5" width="27" height="27" rx="13.5" stroke="white"/>
<defs>
<clipPath id="clip0_2380_179">
<rect width="28" height="28" rx="14" fill="white"/>
</clipPath>
</defs>
</svg>
