<svg width="28" height="28" viewBox="0 0 28 28" fill="none" xmlns="http://www.w3.org/2000/svg">
<g clip-path="url(#clip0_2380_194)">
<rect width="28" height="28" rx="14" fill="white"/>
<path d="M28 14C28 21.7319 21.7319 28 14 28C6.26812 28 0 21.7323 0 14C0 6.26773 6.26812 0 14 0C21.7319 0 28 6.26812 28 14ZM13.1057 12.1042V13.7295L8.33479 11.2532C8.01226 11.4864 7.9213 11.9526 8.06464 12.3169C8.80183 13.5645 9.439 14.9246 10.199 16.1541C10.8271 17.1697 11.9463 17.6352 13.1057 17.2445V19.21L12.5268 18.8536L11.953 18.6338L5.28598 16.946C5.02686 17.3442 4.99772 17.8313 5.26708 18.2334C5.33048 18.3283 5.41594 18.3991 5.48052 18.4921C6.60049 19.6396 7.62398 20.8856 8.74001 22.0355C9.42719 22.7436 10.1994 23.096 11.2076 23.0279C11.9286 22.9794 12.6335 22.5533 13.1061 22.0257V24.6334H14.9487L14.977 24.605V22.0257C15.7839 22.9125 16.9775 23.2547 18.1239 22.8385C18.6476 22.6483 19.0005 22.3525 19.3809 21.9599C20.4961 20.8084 21.5228 19.5664 22.6404 18.4165C23.0027 18.0554 23.1114 17.4887 22.8483 17.0362C22.8125 16.9744 22.7884 16.8988 22.7018 16.9275L16.1112 18.6146C15.7048 18.7425 15.3129 18.9268 14.9774 19.1907V17.2441C16.0946 17.5915 17.1957 17.1457 17.8084 16.173C18.5716 14.9609 19.1848 13.594 19.9389 12.3697C20.0645 12.0912 20.0748 11.7951 19.9389 11.5179C19.9003 11.4391 19.7534 11.2221 19.6593 11.2383L14.9774 13.692V12.1046C15.8603 12.2889 16.72 11.7782 16.9334 10.8953C17.037 10.4672 16.9637 9.99741 16.961 9.56384C16.9574 9.0137 16.9637 8.4675 16.9421 7.91972C16.9322 7.6736 16.9854 7.49835 16.8519 7.27271C16.7688 7.13212 16.5707 6.96436 16.4034 7.00059L14.9778 9.23226C14.9628 8.30131 15.0199 7.35186 14.8994 6.42879C14.8356 5.9393 14.5848 4.48814 14.2032 4.19594C14.0177 4.05418 13.8586 4.11246 13.7224 4.28297C13.2825 4.83429 13.1332 6.70248 13.1057 7.42708L13.1065 9.32716L11.6293 7.0061C10.9197 7.11125 11.0953 7.92799 11.0855 8.44938C11.0756 8.97077 11.0713 9.54454 11.0666 10.0935C11.0654 10.2451 11.0359 10.4038 11.0461 10.5661C11.1142 11.6427 12.046 12.3724 13.1069 12.1054L13.1057 12.1042Z" fill="#525062"/>
</g>
<rect x="0.5" y="0.5" width="27" height="27" rx="13.5" stroke="white"/>
<defs>
<clipPath id="clip0_2380_194">
<rect width="28" height="28" rx="14" fill="white"/>
</clipPath>
</defs>
</svg>
