<svg width="28" height="28" viewBox="0 0 28 28" fill="none" xmlns="http://www.w3.org/2000/svg">
<g clip-path="url(#clip0_2380_221)">
<rect width="28" height="28" rx="14" fill="white"/>
<path d="M28 13.9998C28 21.7317 21.7321 27.9996 14.0002 27.9996C6.26825 27.9996 0 21.7317 0 13.9998C0 6.26786 6.26786 0 13.9998 0C21.7318 0 27.9996 6.26786 27.9996 13.9998H28ZM13.7671 15.2599H17.3387L17.3395 13.0953C17.2269 11.6414 16.2129 10.5597 15.9085 9.15981C15.7632 8.49155 15.7258 7.80716 15.675 7.12552L15.623 5.58858C15.8266 5.45706 15.992 5.19598 16.0156 4.95144C16.0904 4.1749 15.8789 3.59446 15.0244 3.52397C13.8521 3.58737 12.596 3.44246 11.4335 3.52515C10.9196 3.56177 10.5038 3.89137 10.4605 4.42298C10.4325 4.7636 10.4479 5.16369 10.6771 5.43382C10.7117 5.47438 10.8373 5.5685 10.8472 5.58504C10.8877 5.65198 10.8405 6.0052 10.8369 6.10365C10.8003 7.1838 10.7913 8.36003 10.5148 9.40986C10.1734 10.7066 9.17871 11.7891 9.13579 13.1898L9.13697 22.2421C9.21139 23.1364 9.94501 23.7838 10.8271 23.8401L14.8059 23.8393L13.7663 15.2603L13.7671 15.2599ZM20.8154 15.6943H14.3337L15.241 23.8385L19.8152 23.8306L19.8329 23.7916L20.8158 15.6946L20.8154 15.6943Z" fill="#525062"/>
<path d="M15.1843 5.60352L15.2792 7.87683C14.95 8.08987 14.5542 8.24581 14.1538 8.23124C13.7533 8.21667 13.3839 7.97252 13.0023 7.83312C12.4266 7.62323 11.8056 7.55747 11.1976 7.6445L11.2921 5.60352H15.1847H15.1843Z" fill="#525062"/>
<path d="M20.324 16.1478L20.0216 18.6613C19.7869 18.6641 19.5459 18.6204 19.312 18.6228C18.852 18.6275 18.3322 18.7342 17.9002 18.8929C17.4328 19.0646 17.0107 19.3725 16.498 19.3993C16.0065 19.4249 15.558 19.2268 15.1497 18.9791L14.8437 16.1482H20.3236L20.324 16.1478Z" fill="#525062"/>
</g>
<rect x="0.5" y="0.5" width="27" height="27" rx="13.5" stroke="white"/>
<defs>
<clipPath id="clip0_2380_221">
<rect width="28" height="28" rx="14" fill="white"/>
</clipPath>
</defs>
</svg>
