<svg width="28" height="28" viewBox="0 0 28 28" fill="none" xmlns="http://www.w3.org/2000/svg">
<g clip-path="url(#clip0_2380_288)">
<rect width="28" height="28" rx="14" fill="white"/>
<path d="M28 13.9998C28 21.7318 21.7322 27.9996 14.0002 27.9996C6.26824 27.9996 0 21.7322 0 13.9998C0 6.26745 6.26785 0 13.9998 0C21.7318 0 27.9996 6.26785 27.9996 13.9998H28ZM19.4055 8.80862C19.2994 7.32487 17.7155 6.46668 16.3759 7.05177C16.2262 7.117 16.093 7.21641 15.948 7.28007C15.6435 6.84626 15.2183 6.51383 14.6992 6.37748C14.2379 6.25645 13.6418 6.2651 13.1872 6.40891C12.7082 6.5602 12.3259 6.87298 12.0402 7.28007C11.3997 6.87023 10.701 6.73506 9.97252 7.00344C9.16149 7.30208 8.68052 7.95161 8.58111 8.80823C7.73982 8.5815 6.90913 8.77247 6.32836 9.43104C5.74759 10.0896 5.75545 10.8315 6.10949 11.5883C5.28981 12.0414 4.61827 13.1027 4.75659 14.058C4.91887 15.1775 6.39595 16.5952 7.2341 17.3127C8.07225 18.0302 9.05696 18.7069 9.95916 19.4146C9.97527 19.4307 9.97527 19.4503 9.97802 19.4712C10.0205 19.7898 9.95327 20.2111 9.97724 20.5466C10.0212 21.1687 10.4342 21.6359 11.0606 21.707C13.0685 21.6877 15.0831 21.7428 17.0868 21.6791C17.6377 21.5506 17.9697 21.1239 18.0094 20.5655C18.0338 20.2236 17.9658 19.7957 18.0086 19.4712C18.0114 19.4503 18.0118 19.4307 18.0275 19.4146C19.3804 18.3902 20.7891 17.4216 21.951 16.1728C22.5251 15.5559 23.3193 14.5735 23.2513 13.6835C23.1853 12.8186 22.6186 12.0103 21.8768 11.5883C22.3526 10.6983 22.1168 9.67546 21.2968 9.09508C20.714 8.68288 20.0869 8.65105 19.4051 8.80902L19.4055 8.80862Z" fill="#525062"/>
<path d="M14.0127 17.8593C13.9679 17.8621 13.9797 17.8652 13.9754 17.8314C13.5671 14.5987 13.1369 11.3695 12.7105 8.13908C12.87 6.87027 15.155 6.88716 15.278 8.15834L14.0131 17.8593H14.0127Z" fill="#525062"/>
<path d="M14.9366 17.9914C14.9028 17.9957 14.9185 17.9489 14.9201 17.9281C14.9244 17.881 14.9334 17.8263 14.9393 17.7776C15.3299 14.6329 15.7877 11.4956 16.1861 8.35169C16.6152 7.72848 17.4805 7.5713 18.0754 8.07387C18.9112 8.7796 18.3233 9.71952 17.9999 10.5239C16.9968 13.0199 15.9224 15.4883 14.9362 17.9914H14.9366Z" fill="#525062"/>
<path d="M13.0697 17.9725L9.66678 9.73163C9.27462 8.90724 9.5709 7.95553 10.5383 7.79481C11.0268 7.71387 11.5612 7.95317 11.8166 8.37362L13.0693 17.9725H13.0697Z" fill="#525062"/>
<path d="M6.67413 12.3758L12.1557 19.7824C10.5796 18.7325 8.99839 17.6613 7.58261 16.3984C6.96215 15.8447 6.04777 14.928 5.73145 14.1578C5.49804 13.5888 5.92518 12.8037 6.40771 12.489C6.45644 12.4572 6.62501 12.3471 6.67413 12.3758Z" fill="#525062"/>
<path d="M15.8419 19.7639L21.3423 12.375C21.8705 12.531 22.364 13.3177 22.329 13.8533C22.2823 14.5743 21.1258 15.7292 20.6036 16.2196C19.2747 17.4668 17.7096 18.5092 16.2101 19.538L15.8419 19.7639Z" fill="#525062"/>
<path d="M15.8603 18.1989C15.8246 18.2036 15.8493 18.1635 15.8548 18.1462C15.869 18.1018 15.891 18.055 15.9083 18.011C16.9838 15.3253 18.1276 12.6654 19.2137 9.98398C19.2962 9.81383 19.475 9.7486 19.6464 9.70027C20.7159 9.3977 21.6394 10.2944 20.9666 11.3035L15.8599 18.1989H15.8603Z" fill="#525062"/>
<path d="M12.127 18.1422C12.0991 18.176 12.0849 18.1147 12.0779 18.1069C11.9309 17.9406 11.7839 17.7182 11.648 17.5367C10.0817 15.4431 8.52722 13.3389 6.97588 11.2347C6.25561 10.0287 7.80892 9.15717 8.74845 9.91476L12.127 18.1422Z" fill="#525062"/>
<path d="M12.1364 18.1611C12.1491 18.1676 12.1491 18.174 12.1364 18.1804V18.1611Z" fill="#525062"/>
<path d="M12.1553 18.1989C12.168 18.2053 12.168 18.2117 12.1553 18.2181V18.1989Z" fill="#525062"/>
</g>
<rect x="0.5" y="0.5" width="27" height="27" rx="13.5" stroke="white"/>
<defs>
<clipPath id="clip0_2380_288">
<rect width="28" height="28" rx="14" fill="white"/>
</clipPath>
</defs>
</svg>
