<svg width="28" height="28" viewBox="0 0 28 28" fill="none" xmlns="http://www.w3.org/2000/svg">
<g clip-path="url(#clip0_2354_26)">
<rect width="28" height="28" rx="14" fill="white"/>
<path d="M28 13.9998C28 21.7317 21.7321 27.9996 14.0002 27.9996C6.26825 27.9996 0 21.7317 0 13.9998C0 6.26786 6.26786 0 13.9998 0C21.7318 0 27.9996 6.26786 27.9996 13.9998H28ZM17.3722 6.95068C16.9406 7.00148 16.7307 7.56301 16.5795 7.91505C15.6057 10.1789 15.2406 13.5194 17.8738 14.7905C19.2812 15.4698 20.5634 14.9823 21.3903 13.7273C22.1787 12.5306 21.7566 11.7832 21.0387 10.7373C20.4331 9.85483 19.6813 8.83887 18.9733 8.04067C18.6307 7.65476 17.9286 6.88492 17.3722 6.95028V6.95068ZM14.292 9.80404C12.5964 9.88279 9.80679 10.4987 8.51321 11.6406C7.67682 12.3794 7.00738 13.7112 8.45218 14.2345C9.43309 14.5897 10.5593 14.2684 11.3567 13.6529C12.2542 12.9602 13.2922 12.0518 14.0979 11.2539C14.329 11.0248 15.0335 10.3085 15.0299 9.9966C15.0268 9.72331 14.479 9.79537 14.292 9.80404ZM14.5377 12.9405C13.8049 13.0149 12.9169 13.8147 12.4637 14.3625C11.378 15.6757 10.6184 17.6588 11.1354 19.3557C11.5769 20.8044 12.939 21.5963 14.2833 20.6229C16.0534 19.3403 15.1812 17.5974 15.1079 15.8179C15.0744 15.0051 15.3481 14.1518 14.9728 13.4016C14.9323 13.3205 14.7748 13.0496 14.7192 12.9937C14.6566 12.9303 14.6216 12.9319 14.5373 12.9405H14.5377ZM5.37279 13.5076C4.8018 13.5765 4.61278 14.1762 4.47929 14.6551C3.94335 16.5783 4.45173 18.982 6.10759 20.2074C6.98966 20.8603 8.08084 21.0422 8.98418 20.3315C9.88909 19.6195 10.5184 18.4539 10.0289 17.3068C9.64574 16.409 8.13046 15.0839 7.35116 14.4475C6.86641 14.0518 6.02647 13.4284 5.37279 13.5076ZM20.4902 15.4355C19.271 15.4903 17.7632 15.8478 16.828 16.6673C15.2816 18.0219 15.8333 19.8227 17.8262 20.1858C19.4805 20.487 20.0105 19.703 21.1765 18.8048C21.3903 18.6402 21.6101 18.4803 21.8298 18.3243C22.5418 17.8195 23.5274 17.3773 23.7011 16.435C23.7487 16.1759 23.7444 16.1829 23.5349 16.0451C22.7548 15.5324 21.4049 15.3942 20.4902 15.4348V15.4355Z" fill="#525062"/>
</g>
<rect x="0.5" y="0.5" width="27" height="27" rx="13.5" stroke="white"/>
<defs>
<clipPath id="clip0_2354_26">
<rect width="28" height="28" rx="14" fill="white"/>
</clipPath>
</defs>
</svg>
